<svg width="33" height="19" viewBox="0 0 33 19" fill="none" xmlns="http://www.w3.org/2000/svg">
<path d="M0.768 8.976C0.768 6.208 1.352 4.032 2.52 2.448C3.704 0.863999 5.52 0.0719991 7.968 0.0719991C10.4 0.0719991 12.208 0.871999 13.392 2.472C14.576 4.056 15.168 6.224 15.168 8.976C15.168 11.744 14.576 13.928 13.392 15.528C12.208 17.112 10.4 17.904 7.968 17.904C5.52 17.904 3.704 17.112 2.52 15.528C1.352 13.928 0.768 11.744 0.768 8.976ZM9.912 8.976C9.912 7.696 9.784 6.736 9.528 6.096C9.272 5.44 8.752 5.112 7.968 5.112C7.168 5.112 6.64 5.44 6.384 6.096C6.128 6.736 6 7.696 6 8.976C6 10.272 6.128 11.248 6.384 11.904C6.64 12.544 7.168 12.864 7.968 12.864C8.752 12.864 9.272 12.544 9.528 11.904C9.784 11.248 9.912 10.272 9.912 8.976ZM16.1306 5.448V0.456H24.2666V18H18.6746V5.448H16.1306ZM29.3166 18.192C28.3886 18.192 27.6446 17.944 27.0846 17.448C26.5246 16.952 26.2446 16.328 26.2446 15.576C26.2446 14.808 26.5246 14.176 27.0846 13.68C27.6446 13.168 28.3886 12.912 29.3166 12.912C30.2286 12.912 30.9646 13.168 31.5246 13.68C32.0846 14.176 32.3646 14.808 32.3646 15.576C32.3646 16.328 32.0846 16.952 31.5246 17.448C30.9646 17.944 30.2286 18.192 29.3166 18.192Z" fill="#9099A3"/>
</svg>
