<svg width="60" height="60" viewBox="0 0 60 60" fill="none" xmlns="http://www.w3.org/2000/svg">
<path d="M55 0H5.00004C2.23992 0.00328125 0.00328125 2.23992 0 5.00004V55.0001C0.00328125 57.7601 2.23992 59.9967 5.00004 60H55.0001C57.7601 59.9967 59.9967 57.7601 60.0001 55V5.00004C59.9967 2.23992 57.7601 0.00328125 55 0V0ZM5.00004 2.00004H55.0001C56.6569 2.00004 58.0001 3.34324 58.0001 5.00004V8.00004H2.00004V5.00004C2.00004 3.34312 3.34312 2.00004 5.00004 2.00004ZM55 58H5.00004C3.34324 58 2.00004 56.6568 2.00004 55V9.99996H58.0001V55C58 56.6569 56.6569 58 55 58Z" fill="#FF1A1A"/>
<path d="M46.9997 5.99992C47.552 5.99992 47.9997 5.55222 47.9997 4.99996C47.9997 4.4477 47.552 4 46.9997 4C46.4475 4 45.9998 4.4477 45.9998 4.99996C45.9998 5.55222 46.4475 5.99992 46.9997 5.99992Z" fill="#FF1A1A"/>
<path d="M51.0002 5.99992C51.5525 5.99992 52.0002 5.55222 52.0002 4.99996C52.0002 4.4477 51.5525 4 51.0002 4C50.448 4 50.0003 4.4477 50.0003 4.99996C50.0003 5.55222 50.448 5.99992 51.0002 5.99992Z" fill="#FF1A1A"/>
<path d="M55.0001 5.99992C55.5523 5.99992 56 5.55222 56 4.99996C56 4.4477 55.5523 4 55.0001 4C54.4478 4 54.0001 4.4477 54.0001 4.99996C54.0001 5.55222 54.4478 5.99992 55.0001 5.99992Z" fill="#FF1A1A"/>
<path d="M6.99983 21H26.9999C28.1045 21 28.9999 20.1046 28.9999 19V15C28.9999 13.8954 28.1045 13 26.9999 13H6.99983C5.89522 13 4.99979 13.8954 4.99979 15V19C4.9999 20.1046 5.89533 21 6.99983 21ZM6.99983 15H26.9999V19H6.99983V15Z" fill="#FF1A1A"/>
<path d="M53 13H33C31.8954 13 30.9999 13.8954 30.9999 15V19C30.9999 20.1046 31.8954 21 33 21H53C54.1046 21 55.0001 20.1046 55.0001 19V15C54.9999 13.8954 54.1045 13 53 13ZM33 19V15H53V19H33Z" fill="#FF1A1A"/>
<path d="M52.9999 23H6.99983C5.89522 23 4.99979 23.8954 4.99979 25V45C4.99979 46.1046 5.89522 47 6.99983 47H52.9998C54.1044 47 54.9998 46.1046 54.9998 45V24.9999C54.9998 23.8954 54.1044 23 52.9999 23ZM6.99983 45V24.9999H52.9998V45H6.99983Z" fill="#FF1A1A"/>
<path d="M52.0002 49.0001H38.0003C36.3435 49.0001 35.0003 50.3433 35.0003 52.0001C35.0003 53.6569 36.3435 55.0001 38.0003 55.0001H52.0003C53.6571 55.0001 55.0003 53.6569 55.0003 52.0001C55.0002 50.3433 53.6571 49.0001 52.0002 49.0001ZM52.0002 53.0002H38.0003C37.448 53.0002 37.0003 52.5524 37.0003 52.0002C37.0003 51.4479 37.4481 51.0003 38.0003 51.0003H52.0003C52.5527 51.0003 53.0003 51.4481 53.0003 52.0002C53.0003 52.5524 52.5525 53.0002 52.0002 53.0002Z" fill="#FF1A1A"/>
<path d="M10.0001 29.0002H13.0001C13.5524 29.0002 14.0001 28.5524 14.0001 28.0002C14.0001 27.4479 13.5523 27.0002 13.0001 27.0002H10.0001C9.44781 27.0002 9.00015 27.448 9.00015 28.0002C9.00015 28.5524 9.44793 29.0002 10.0001 29.0002Z" fill="#FF1A1A"/>
<path d="M16.9998 29.0002H28.9998C29.5521 29.0002 29.9997 28.5524 29.9997 28.0002C29.9997 27.4479 29.5521 27.0002 28.9998 27.0002H16.9998C16.4475 27.0002 15.9998 27.448 15.9998 28.0002C15.9997 28.5524 16.4475 29.0002 16.9998 29.0002Z" fill="#FF1A1A"/>
<path d="M36.0002 31H10.0001C9.44781 31 9.00015 31.4477 9.00015 32C9.00015 32.5523 9.44793 32.9999 10.0001 32.9999H36.0002C36.5525 32.9999 37.0001 32.5523 37.0001 32C37.0001 31.4477 36.5525 31 36.0002 31Z" fill="#FF1A1A"/>
<path d="M4.29313 6.70697C4.68359 7.09732 5.31664 7.09732 5.70711 6.70697L6.00008 6.414L6.29305 6.70697C6.68539 7.08595 7.30918 7.08056 7.69484 6.69478C8.08063 6.309 8.08602 5.68533 7.70703 5.29298L7.41406 5.00001L7.70703 4.70704C8.08602 4.3147 8.08063 3.69091 7.69484 3.30525C7.30906 2.91947 6.68539 2.91408 6.29305 3.29306L6.00008 3.58603L5.70711 3.29306C5.31477 2.91408 4.69098 2.91947 4.30531 3.30525C3.91953 3.69103 3.91414 4.3147 4.29313 4.70704L4.58609 5.00001L4.29313 5.29298C3.90266 5.68345 3.90266 6.3165 4.29313 6.70697Z" fill="#FF1A1A"/>
</svg>
