<svg width="66" height="66" viewBox="0 0 66 66" fill="none" xmlns="http://www.w3.org/2000/svg">
<path d="M51.9128 37.6604C49.0629 37.2978 45.1083 37.2407 45.1083 33.4945C45.1083 31.7852 46.861 30.769 48.291 30.3152C50.1525 29.7246 52.6323 29.9857 54.1352 31.3019C56.9342 33.7531 55.4624 38.0622 53.8334 40.689C50.3216 46.3518 35.8088 52.0424 32.2126 43.3612C30.0119 38.0486 33.157 32.6359 35.6423 28.0404C39.777 20.3953 44.4944 13.0544 48.9495 5.59363" stroke="black" stroke-linecap="round"/>
<path d="M56.6055 20.6407L59.0748 24.8341" stroke="black" stroke-linecap="round"/>
<path d="M48.9492 18.1746C49.228 19.5222 49.5523 20.8147 49.937 22.1212" stroke="black" stroke-linecap="round"/>
<path d="M65 8.80061C63.9621 8.87837 52.1123 10.942 53.4351 6.978C53.9955 5.29856 54.5721 3.68731 56.0005 2.55169C56.8762 1.85547 59.2677 0.343099 60.3905 1.31835C61.379 2.17695 59.6635 4.26736 59.1833 4.90873C57.2992 7.42487 53.9727 9.44064 51.144 10.6643C43.2586 14.0756 35.0363 15.4606 26.4777 15.4606" stroke="black" stroke-linecap="round"/>
<path d="M21.0451 36.9209C20.0174 34.7944 19.0966 32.147 17.0804 30.6994C15.4787 29.5495 12.981 29.6358 11.1264 29.8361C8.34992 30.1359 5.33206 32.6436 6.53063 35.7698C7.1908 37.4917 9.1026 39.0343 10.5365 40.1002C11.1238 40.5368 13.3043 41.2008 12.3474 41.6898C8.59161 43.6093 -0.84266 46.4754 1.3175 52.4336C3.40108 58.1805 10.8059 62.0352 16.1063 63.9996C24.3201 67.0436 32.0526 62.4578 39.5655 59.3677" stroke="black" stroke-linecap="round"/>
</svg>
